<svg xmlns="http://www.w3.org/2000/svg" xmlns:xlink="http://www.w3.org/1999/xlink" width="1024" height="1024" viewBox="0 0 1024 1024"><path fill="white" d="M0 0L1024 0L1024 1024L0 1024L0 0Z"/><path d="M433.815 370.705C435.264 370.478 439.451 370.386 441.113 370.303L403.327 490.105L391.505 526.815C385.454 545.566 375.213 565.612 391.583 582.412C402.165 593.273 414.127 591.581 428.098 591.641L459.998 591.739L576.122 591.827C573.497 601.038 568.955 613.091 565.813 622.466C557.697 646.826 549.423 671.134 540.991 695.387C532.489 721.152 523.809 746.858 514.952 772.502C510.868 784.426 506.852 797.246 502.235 808.88C485.906 813.369 454.515 814.371 437.868 812.795C391.87 808.623 348.247 790.487 312.849 760.819C267.98 723.046 239.971 668.983 234.994 610.543C229.58 551.005 248.386 491.798 287.164 446.297C324.15 402.726 376.868 375.552 433.815 370.705Z"/><path d="M765.561 212.813L767.252 213.068L713.203 359.367L685.063 434.52C678.095 452.944 670.68 471.419 664.301 490.035L789.283 490.335C768.591 517.014 746.384 543.056 724.991 569.289L594.802 727.276C573.108 753.169 549.822 779.786 528.721 806.01C534.965 789.368 541.082 770.336 546.763 753.43C555.51 728.184 564.063 702.872 572.421 677.495C580.267 654.997 587.898 632.423 595.311 609.778C599.953 596.051 604.924 582.389 608.986 568.467C592.076 567.804 572.724 568.263 555.692 568.318C530.127 568.403 504.563 568.313 479 568.047C482.761 562.787 487.615 557.154 491.678 551.919C502.642 537.76 513.711 523.683 524.883 509.689C555.772 470.461 587.03 431.526 618.653 392.888L674.392 323.281C704.371 286.121 734.763 249.296 765.561 212.813Z"/><path d="M556.427 208.9C558.794 211.363 571.136 237.796 573.899 243.305L624.942 344.513C606.885 344.604 588.827 344.597 570.77 344.493C568.224 351.488 565.632 361.176 563.299 368.542L543.768 431.125C541.889 437.129 535.699 459.558 532.787 463.76C527.298 471.68 516.846 484.074 510.563 491.965L449.787 568.278C438.755 568.642 425.57 568.276 414.375 568.245C399.373 568.482 408.941 550.387 411.569 542.141L422.646 507.399L463.219 381.132C466.996 369.081 471.255 356.739 474.718 344.657C455.986 343.973 433.146 344.585 414.097 344.607L556.427 208.9Z"/><path fill="#111012" d="M765.561 212.813C765.972 212.322 767.065 210.815 767.605 210.647C768.152 210.835 767.348 212.736 767.252 213.068L765.561 212.813Z"/></svg>
