<svg xmlns="http://www.w3.org/2000/svg" width="1024" height="1024">
  <path d="M433.815 370.705c1.449-.227 5.636-.319 7.298-.402l-37.786 119.802-11.822 36.71c-6.051 18.751-16.292 38.797.078 55.597 10.582 10.861 22.544 9.169 36.515 9.229l31.9.098 116.124.088c-2.625 9.211-7.167 21.264-10.309 30.639a5929 5929 0 0 1-24.822 72.921 5888 5888 0 0 1-26.039 77.115c-4.084 11.924-8.1 24.744-12.717 36.378-16.329 4.489-47.72 5.491-64.367 3.915a226.48 226.48 0 0 1-125.019-51.976 220.95 220.95 0 0 1-77.855-150.276 222.2 222.2 0 0 1 52.17-164.246 216.44 216.44 0 0 1 146.651-75.592"/>
  <path d="m765.561 212.813 1.691.255-54.049 146.299-28.14 75.153c-6.968 18.424-14.383 36.899-20.762 55.515l124.982.3c-20.692 26.679-42.899 52.721-64.292 78.954L594.802 727.276c-21.694 25.893-44.98 52.51-66.081 78.734 6.244-16.642 12.361-35.674 18.042-52.58a5217 5217 0 0 0 25.658-75.935 3725 3725 0 0 0 22.89-67.717c4.642-13.727 9.613-27.389 13.675-41.311-16.91-.663-36.262-.204-53.294-.149q-38.348.128-76.692-.271c3.761-5.26 8.615-10.893 12.678-16.128a3623 3623 0 0 1 33.205-42.23 7941 7941 0 0 1 93.77-116.801l55.739-69.607a6436 6436 0 0 1 91.169-110.468M556.427 208.9c2.367 2.463 14.709 28.896 17.472 34.405l51.043 101.208q-27.086.136-54.172-.02c-2.546 6.995-5.138 16.683-7.471 24.049l-19.531 62.583c-1.879 6.004-8.069 28.433-10.981 32.635-5.489 7.92-15.941 20.314-22.224 28.205l-60.776 76.313c-11.032.364-24.217-.002-35.412-.033-15.002.237-5.434-17.858-2.806-26.104l11.077-34.742 40.573-126.267c3.777-12.051 8.036-24.393 11.499-36.475-18.732-.684-41.572-.072-60.621-.05z"/>
  <path fill="#111012" d="M765.561 212.813c.411-.491 1.504-1.998 2.044-2.166.547.188-.257 2.089-.353 2.421z"/>
</svg>
