<svg width="556" height="605" viewBox="0 0 556 605" fill="none" xmlns="http://www.w3.org/2000/svg">
<path d="M199.734 161.805C201.183 161.578 205.37 161.486 207.032 161.403L169.246 281.205L157.424 317.915C151.373 336.666 141.132 356.712 157.502 373.512C168.084 384.373 180.046 382.681 194.017 382.741L225.917 382.839L342.041 382.927C339.416 392.138 334.874 404.191 331.732 413.566C323.616 437.926 315.342 462.234 306.91 486.487C298.408 512.252 289.728 537.957 280.871 563.602C276.787 575.526 272.771 588.346 268.154 599.98C251.825 604.469 220.434 605.471 203.787 603.895C157.789 599.723 114.166 581.587 78.7678 551.919C56.5516 533.216 38.2403 510.317 24.8812 484.531C11.5222 458.745 3.37743 430.579 0.91284 401.643C-1.76685 372.171 1.46761 342.461 10.4264 314.256C19.3851 286.052 33.8877 259.921 53.0828 237.397C90.0689 193.826 142.787 166.652 199.734 161.805Z" fill="black"/>
<path d="M531.48 3.91301L533.171 4.168L479.122 150.467L450.982 225.62C444.014 244.044 436.599 262.519 430.22 281.135L555.202 281.435C534.51 308.114 512.303 334.156 490.91 360.389L360.721 518.376C339.027 544.269 315.741 570.886 294.64 597.11C300.884 580.468 307.001 561.436 312.682 544.53C321.429 519.284 329.982 493.972 338.34 468.595C346.186 446.096 353.817 423.523 361.23 400.878C365.872 387.151 370.843 373.489 374.905 359.567C357.995 358.904 338.643 359.363 321.611 359.418C296.046 359.503 270.481 359.413 244.919 359.147C248.68 353.887 253.534 348.254 257.597 343.019C268.561 328.86 279.629 314.783 290.802 300.789C321.691 261.561 352.949 222.626 384.572 183.988L440.311 114.381C470.29 77.2213 500.681 40.3964 531.48 3.91301ZM322.346 0C324.713 2.463 337.055 28.896 339.818 34.405L390.861 135.613C372.804 135.704 354.746 135.697 336.689 135.593C334.143 142.588 331.551 152.276 329.218 159.642L309.687 222.225C307.808 228.229 301.618 250.658 298.706 254.86C293.217 262.78 282.765 275.174 276.482 283.065L215.706 359.378C204.674 359.742 191.489 359.376 180.294 359.345C165.292 359.582 174.86 341.487 177.488 333.241L188.565 298.499L229.138 172.232C232.915 160.181 237.174 147.839 240.637 135.757C221.905 135.073 199.065 135.685 180.016 135.707L322.346 0Z" fill="black"/>
</svg>
